<svg width="198" height="45" viewBox="0 0 198 45" version="1.1" xmlns="http://www.w3.org/2000/svg" xmlns:xlink="http://www.w3.org/1999/xlink">
<title>logo_any4soft</title>
<desc>Created using Figma</desc>
<g id="Canvas" transform="translate(-17800 -779)">
<g id="logo_any4soft">
<g id="Group">
<g id="Vector">
<use xlink:href="#path0_fill" transform="translate(17800 779)" fill="#11AD7F"/>
</g>
<g id="Vector">
<use xlink:href="#path1_fill" transform="translate(17840.9 815.343)" fill="#11AD7F"/>
</g>
</g>
<g id="Group">
<g id="Vector">
<use xlink:href="#path2_fill" transform="translate(17869.4 789.545)" fill="#11AD7F"/>
</g>
<g id="Vector">
<use xlink:href="#path3_fill" transform="translate(17888.2 793.959)" fill="#11AD7F"/>
</g>
<g id="Vector">
<use xlink:href="#path4_fill" transform="translate(17901.3 794.327)" fill="#11AD7F"/>
</g>
<g id="Vector">
<use xlink:href="#path5_fill" transform="translate(17916.8 788.993)" fill="#11AD7F"/>
</g>
<g id="Vector">
<use xlink:href="#path6_fill" transform="translate(17925.1 793.959)" fill="#11AD7F"/>
</g>
<g id="Vector">
<use xlink:href="#path7_fill" transform="translate(17942.8 793.959)" fill="#11AD7F"/>
</g>
<g id="Vector">
<use xlink:href="#path8_fill" transform="translate(17951 789.177)" fill="#11AD7F"/>
</g>
<g id="Vector">
<use xlink:href="#path9_fill" transform="translate(17964.8 793.959)" fill="#11AD7F"/>
</g>
<g id="Vector">
<use xlink:href="#path10_fill" transform="translate(17981.4 788.993)" fill="#11AD7F"/>
</g>
<g id="Vector">
<use xlink:href="#path11_fill" transform="translate(17990.2 791.445)" fill="#11AD7F"/>
</g>
</g>
</g>
</g>
<defs>
<path id="path0_fill" d="M 66.8556 42.7316L 47.4833 6.06948C 45.7111 2.63624 41.25 0 37.4 0L 28.8444 0C 24.9944 0 20.5944 2.69755 18.7611 6.06948L 0.366667 40.9537C -0.122222 41.8733 -0.122222 42.8542 0.366667 43.6512C 0.855556 44.4482 1.71111 44.8774 2.75 44.8774L 5.5 44.8774C 7.15 44.8774 8.98333 43.7738 9.71667 42.3025L 25.9111 11.5872C 26.7056 10.1158 28.7833 8.82834 30.4333 8.82834L 35.8111 8.82834C 37.4611 8.82834 39.5389 10.1158 40.3333 11.5872L 56.0389 41.3828C 56.1611 41.6281 55.9778 41.8733 55.6722 41.8733L 53.9611 41.8733C 53.4111 41.8733 52.6167 41.3828 52.3722 40.8924L 38.4389 14.4074C 37.6444 12.936 35.8722 11.8324 34.2222 11.8324L 32.0833 11.8324C 30.4333 11.8324 28.6 12.936 27.8667 14.4074L 13.8722 40.8924C 13.3833 41.812 13.3833 42.7929 13.8111 43.5899C 14.3 44.3869 15.1556 44.8161 16.1944 44.8161L 18.9444 44.8161C 20.5944 44.8161 22.4278 43.7125 23.1611 42.2411L 32.7556 24.0327C 32.8778 23.7875 33.1222 23.7875 33.3056 24.0327L 37.2778 31.6349C 37.4611 31.9414 37.2778 32.1866 36.9722 32.1866L 32.2056 32.1866C 31.4111 32.1866 30.7389 32.861 30.7389 33.658C 30.7389 34.455 31.4111 35.1294 32.2056 35.1294L 38.0111 35.1294C 39.05 35.1294 39.9667 34.7003 40.3944 33.9033C 40.8833 33.1063 40.8833 32.1253 40.3333 31.2057L 35.2 21.3965C 34.7111 20.4155 33.8556 19.8638 32.9389 19.8638C 32.0222 19.8638 31.2278 20.4155 30.6778 21.3965L 20.4111 40.8924C 20.1667 41.3828 19.3722 41.8733 18.8222 41.8733L 17.1111 41.8733C 16.8056 41.8733 16.6222 41.6281 16.8056 41.3828L 30.25 15.8787C 30.4944 15.3883 31.2889 14.8978 31.8389 14.8978L 33.9778 14.8978C 34.5278 14.8978 35.3222 15.3883 35.5667 15.8787L 49.5 42.3638C 50.2944 43.8351 52.0667 44.9387 53.7167 44.9387L 56.4667 44.9387C 57.5056 44.9387 58.4222 44.5095 58.85 43.7125C 59.3389 42.9155 59.3389 41.9346 58.85 41.015L 42.6556 10.2997C 41.3722 7.84741 38.2556 5.94687 35.5056 5.94687L 30.1278 5.94687C 27.3778 5.94687 24.2611 7.84741 22.9778 10.2997L 6.78333 41.015C 6.53889 41.5055 5.74444 41.9959 5.19444 41.9959L 3.48333 41.9959C 3.17778 41.9959 3.05556 41.812 3.11667 41.5054L 21.0222 7.47956C 22.3056 5.02725 25.7278 3.00409 28.4778 3.00409L 37.0333 3.00409C 39.7833 3.00409 43.2056 5.02725 44.4889 7.47956L 63.8 44.1417C 64.0444 44.6322 64.5944 44.9387 65.1444 44.9387C 65.3889 44.9387 65.6333 44.8774 65.8167 44.7548C 66.9778 44.3869 67.2833 43.4673 66.8556 42.7316Z"/>
<path id="path1_fill" d="M 2.79624 0.809231C 2.42957 0.0735362 1.5129 -0.233003 0.779567 0.196152C 0.046234 0.563999 -0.19821 1.48362 0.168456 2.21931L 3.10179 7.85964C 3.34624 8.3501 3.89623 8.65664 4.44623 8.65664C 4.69068 8.65664 4.93513 8.59534 5.11846 8.47272C 5.85179 8.10487 6.09624 7.18526 5.72957 6.44956L 2.79624 0.809231Z"/>
<path id="path2_fill" d="M 10.1235 0.30654C 10.0624 0.122616 9.87903 4.67742e-07 9.63458 4.67742e-07L 7.43459 4.67742e-07C 7.25125 4.67742e-07 7.06792 0.122616 6.9457 0.30654L 0.0401392 18.9441C -0.0209719 19.0668 -0.0209682 19.2507 0.101254 19.3733C 0.223476 19.4959 0.345697 19.5572 0.52903 19.5572L 2.72903 19.5572C 2.91236 19.5572 3.0957 19.4346 3.21792 19.2507L 5.35681 13.549L 11.9568 13.549L 14.0957 19.2507C 14.1568 19.4346 14.3401 19.5572 14.5846 19.5572L 16.7846 19.5572C 16.9679 19.5572 17.0901 19.4959 17.2124 19.3733C 17.3346 19.2507 17.3346 19.0668 17.2735 18.9441L 10.1235 0.30654ZM 10.8568 10.7289L 6.27348 10.7289L 8.53458 4.35286L 10.8568 10.7289Z"/>
<path id="path3_fill" d="M 6.66111 -2.33871e-07C 5.25556 -2.33871e-07 3.97222 0.551772 3.05555 1.41008L 3.05555 0.85831C 3.05555 0.613079 2.81111 0.367847 2.56667 0.367847L 0.488887 0.367847C 0.244443 0.367847 -3.72993e-06 0.613079 -3.72993e-06 0.85831L -3.72993e-06 14.7139C -3.72993e-06 14.9591 0.244443 15.2044 0.488887 15.2044L 2.56667 15.2044C 2.81111 15.2044 3.05555 14.9591 3.05555 14.7139L 3.05555 6.31471C 3.05555 4.29155 4.27778 2.94278 6.17222 2.94278C 7.88333 2.94278 8.92222 4.16894 8.92222 6.00817L 8.92222 14.7752C 8.92222 15.0204 9.16667 15.2657 9.41111 15.2657L 11.4889 15.2657C 11.7333 15.2657 11.9778 15.0204 11.9778 14.7752L 11.9778 6.13079C 12.0389 2.39101 9.96111 -2.33871e-07 6.66111 -2.33871e-07Z"/>
<path id="path4_fill" d="M 13.729 0L 11.4679 0C 11.2846 0 11.1013 0.122616 10.979 0.30654L 7.19015 10.2384L 3.27903 0.30654C 3.21792 0.122616 3.03458 0 2.79014 0L 0.529028 0C 0.345695 0 0.223474 0.0613077 0.101252 0.245231C -0.02097 0.429155 -0.0209738 0.551772 0.0401374 0.735695L 5.60125 14.2847L 3.7068 19.0054C 3.64569 19.1894 3.6457 19.312 3.76792 19.4959C 3.89014 19.6185 4.01236 19.7411 4.19569 19.7411L 6.27348 19.7411C 6.45681 19.7411 6.64014 19.6185 6.76236 19.4346L 14.2179 0.674387C 14.279 0.490463 14.279 0.367847 14.1568 0.183923C 14.0346 0.0613074 13.9124 0 13.729 0Z"/>
<path id="path5_fill" d="M 7.27223 0.0613077C 7.27223 0.0613077 6.78334 -4.67742e-07 6.35556 -4.67742e-07C 3.3 -4.67742e-07 1.52778 1.83924 1.52778 5.08856L 1.52778 5.33379L 0.488889 5.33379C 0.244444 5.33379 -1.86496e-06 5.57902 -1.86496e-06 5.82425L -1.86496e-06 7.60218C -1.86496e-06 7.84741 0.244444 8.09264 0.488889 8.09264L 1.52778 8.09264L 1.52778 19.6798C 1.52778 19.9251 1.77222 20.1703 2.01667 20.1703L 4.15556 20.1703C 4.4 20.1703 4.64445 19.9251 4.64445 19.6798L 4.64445 8.09264L 7.08889 8.09264C 7.33333 8.09264 7.57778 7.84741 7.57778 7.60218L 7.57778 5.82425C 7.57778 5.57902 7.33333 5.33379 7.08889 5.33379L 4.64445 5.33379L 4.64445 5.08856C 4.64445 3.0654 5.62222 2.82016 6.53889 2.82016C 6.84444 2.82016 7.15 2.88147 7.15 2.88147C 7.27222 2.88147 7.45556 2.88147 7.57778 2.75885C 7.7 2.63624 7.76111 2.51362 7.76111 2.39101L 7.76111 0.551772C 7.7 0.30654 7.51667 0.0613077 7.27223 0.0613077Z"/>
<path id="path6_fill" d="M 7.7 -2.33871e-07C 3.3 -2.33871e-07 -1.86496e-06 3.37193 -1.86496e-06 7.7861C -1.86496e-06 12.3229 3.23889 15.5722 7.7 15.5722C 12.1 15.5722 15.4 12.2003 15.4 7.7861C 15.4 3.37193 12.1 -2.33871e-07 7.7 -2.33871e-07ZM 7.63889 12.6294C 4.95 12.6294 3.05555 10.6063 3.05555 7.7861C 3.05555 4.96594 4.95 2.94278 7.63889 2.94278C 10.3278 2.94278 12.2222 4.96594 12.2222 7.7861C 12.2833 10.6063 10.3278 12.6294 7.63889 12.6294Z"/>
<path id="path7_fill" d="M 6.66111 -2.33871e-07C 5.07222 -2.33871e-07 3.85 0.613079 3.05556 1.47139L 3.05556 0.85831C 3.05556 0.613079 2.81111 0.367847 2.56667 0.367847L 0.488885 0.367847C 0.244441 0.367847 3.72993e-06 0.613079 3.72993e-06 0.85831L 3.72993e-06 14.7139C 3.72993e-06 14.9591 0.244441 15.2044 0.488885 15.2044L 2.56667 15.2044C 2.81111 15.2044 3.05556 14.9591 3.05556 14.7139L 3.05556 8.09264C 3.05556 4.72071 4.21667 3.1267 6.66111 3.1267C 6.90556 3.1267 7.15 2.88147 7.15 2.63624L 7.15 0.551771C 7.15 0.245231 6.90556 -2.33871e-07 6.66111 -2.33871e-07Z"/>
<path id="path8_fill" d="M 7.13684 8.58311C 5.2424 7.66349 3.59239 6.86649 3.59239 5.27248C 3.59239 3.8624 4.63129 2.94278 6.22018 2.94278C 8.05351 2.94278 8.90907 4.23024 9.27573 5.02725C 9.39795 5.27248 9.6424 5.3951 9.88684 5.27248L 11.7202 4.53678C 11.9646 4.41417 12.0868 4.16894 12.0257 3.92371C 11.7813 3.24932 10.4368 2.33871e-07 6.28127 2.33871e-07C 2.85905 2.33871e-07 0.475728 2.14578 0.475728 5.27248C 0.475728 8.76703 3.16462 10.0545 5.54795 11.158C 7.50351 12.0777 9.21462 12.8747 9.21462 14.7752C 9.21462 16.3692 8.11461 17.3501 6.34239 17.3501C 4.57017 17.3501 3.34795 16.4918 2.73684 14.7752C 2.67573 14.6526 2.61462 14.53 2.4924 14.4687C 2.37017 14.4074 2.24795 14.4074 2.12573 14.4687L 0.292393 15.2657C 0.0479484 15.3883 -0.0742701 15.6335 0.0479521 15.8787C 0.47573 17.2275 2.0035 20.3542 6.34239 20.3542C 9.94794 20.3542 12.4535 18.0245 12.4535 14.6526C 12.3313 11.0967 9.58129 9.74796 7.13684 8.58311Z"/>
<path id="path9_fill" d="M 7.69999 -2.33871e-07C 3.29999 -2.33871e-07 7.45985e-06 3.37193 7.45985e-06 7.7861C 7.45985e-06 12.3229 3.23888 15.5722 7.69999 15.5722C 12.1 15.5722 15.4 12.2003 15.4 7.7861C 15.4 3.37193 12.1 -2.33871e-07 7.69999 -2.33871e-07ZM 7.69999 12.6294C 5.0111 12.6294 3.11666 10.6063 3.11666 7.7861C 3.11666 4.96594 5.0111 2.94278 7.69999 2.94278C 10.3889 2.94278 12.2833 4.96594 12.2833 7.7861C 12.2833 10.6063 10.3889 12.6294 7.69999 12.6294Z"/>
<path id="path10_fill" d="M 7.27223 0.0613077C 7.27223 0.0613077 6.78334 -4.67742e-07 6.35556 -4.67742e-07C 3.30001 -4.67742e-07 1.52777 1.83924 1.52777 5.08856L 1.52777 5.33379L 0.488893 5.33379C 0.244448 5.33379 -7.45985e-06 5.57902 -7.45985e-06 5.82425L -7.45985e-06 7.60218C -7.45985e-06 7.84741 0.244448 8.09264 0.488893 8.09264L 1.52777 8.09264L 1.52777 19.6798C 1.52777 19.9251 1.77223 20.1703 2.01667 20.1703L 4.15556 20.1703C 4.4 20.1703 4.64444 19.9251 4.64444 19.6798L 4.64444 8.09264L 7.08888 8.09264C 7.33333 8.09264 7.57779 7.84741 7.57779 7.60218L 7.57779 5.82425C 7.57779 5.57902 7.33333 5.33379 7.08888 5.33379L 4.64444 5.33379L 4.64444 5.08856C 4.64444 3.0654 5.62222 2.82016 6.53889 2.82016C 6.84444 2.82016 7.15 2.88147 7.15 2.88147C 7.27222 2.88147 7.45556 2.88147 7.57779 2.75885C 7.70001 2.63624 7.76111 2.51362 7.76111 2.39101L 7.76111 0.551772C 7.7 0.30654 7.51667 0.0613077 7.27223 0.0613077Z"/>
<path id="path11_fill" d="M 7.6389 15.0817C 7.51667 14.9591 7.39445 14.9591 7.27223 14.9591C 7.27223 14.9591 6.96667 14.9591 6.72223 14.9591C 5.31667 14.9591 4.64444 14.7139 4.64444 12.2616L 4.64444 5.64033L 7.15 5.64033C 7.39444 5.64033 7.6389 5.3951 7.6389 5.14986L 7.6389 3.37193C 7.6389 3.1267 7.39444 2.88147 7.15 2.88147L 4.64444 2.88147L 4.64444 0.490463C 4.64444 0.245232 4.4 -4.67742e-07 4.15556 -4.67742e-07L 2.07778 -4.67742e-07C 1.83334 -4.67742e-07 1.58888 0.245232 1.58888 0.490463L 1.58888 2.88147L 0.488889 2.88147C 0.244444 2.88147 7.45985e-06 3.1267 7.45985e-06 3.37193L 7.45985e-06 5.14986C 7.45985e-06 5.3951 0.244444 5.64033 0.488889 5.64033L 1.58888 5.64033L 1.58888 12.4455C 1.58888 16.921 4.03334 17.9019 6.05 17.9019C 6.78334 17.9019 7.39444 17.8406 7.39444 17.8406C 7.63888 17.7793 7.82222 17.5954 7.82222 17.3501L 7.82222 15.5109C 7.82222 15.327 7.76112 15.2044 7.6389 15.0817Z"/>
</defs>
</svg>
