<svg width="97" height="65" viewBox="0 0 97 65" version="1.1" xmlns="http://www.w3.org/2000/svg" xmlns:xlink="http://www.w3.org/1999/xlink">
<title>Vector</title>
<desc>Created using Figma</desc>
<g id="Canvas" transform="translate(-18552 -961)">
<g id="Vector">
<use xlink:href="#path0_fill" transform="translate(18552 961)" fill="#1E1F24" fill-opacity="0.2"/>
</g>
</g>
<defs>
<path id="path0_fill" d="M 96.7334 61.8076L 68.7037 8.77899C 66.1395 3.8131 59.6847 0 54.1141 0L 41.7351 0C 36.1645 0 29.7981 3.90177 27.1455 8.77899L 0.530531 59.236C -0.176844 60.5662 -0.176844 61.985 0.530531 63.1378C 1.23791 64.2906 2.47581 64.9113 3.97898 64.9113L 7.95796 64.9113C 10.3454 64.9113 12.998 63.3151 14.0591 61.1869L 37.4908 16.7599C 38.6403 14.6316 41.6467 12.7694 44.0341 12.7694L 51.8152 12.7694C 54.2026 12.7694 57.2089 14.6316 58.3584 16.7599L 81.0828 59.8568C 81.2596 60.2115 80.9944 60.5662 80.5523 60.5662L 78.0764 60.5662C 77.2806 60.5662 76.1312 59.8567 75.7775 59.1473L 55.6173 20.839C 54.4678 18.7108 51.9036 17.1146 49.5162 17.1146L 46.4214 17.1146C 44.0341 17.1146 41.3814 18.7108 40.3203 20.839L 20.0717 59.1473C 19.3644 60.4775 19.3644 61.8963 19.9833 63.0491C 20.6907 64.2019 21.9286 64.8226 23.4318 64.8226L 27.4108 64.8226C 29.7981 64.8226 32.4508 63.2265 33.5119 61.0982L 47.3941 34.7613C 47.5709 34.4065 47.9246 34.4065 48.1899 34.7613L 53.9373 45.7572C 54.2026 46.2005 53.9373 46.5553 53.4952 46.5553L 46.5983 46.5553C 45.4488 46.5553 44.4762 47.5307 44.4762 48.6835C 44.4762 49.8363 45.4488 50.8117 46.5983 50.8117L 54.9984 50.8117C 56.5015 50.8117 57.8279 50.191 58.4468 49.0382C 59.1542 47.8854 59.1542 46.4666 58.3584 45.1364L 50.931 30.9482C 50.2236 29.5293 48.9857 28.7312 47.6593 28.7312C 46.333 28.7312 45.1835 29.5293 44.3877 30.9482L 29.5329 59.1473C 29.1792 59.8567 28.0297 60.5662 27.2339 60.5662L 24.7581 60.5662C 24.316 60.5662 24.0507 60.2115 24.316 59.8568L 43.7688 22.9673C 44.1225 22.2578 45.272 21.5484 46.0678 21.5484L 49.1625 21.5484C 49.9583 21.5484 51.1078 22.2578 51.4615 22.9673L 71.6217 61.2756C 72.7711 63.4038 75.3354 65 77.7228 65L 81.7017 65C 83.2049 65 84.5312 64.3793 85.1502 63.2265C 85.8576 62.0737 85.8576 60.6548 85.1502 59.3247L 61.7184 14.8977C 59.8616 11.3506 55.352 8.60164 51.3731 8.60164L 43.5919 8.60164C 39.613 8.60164 35.1035 11.3506 33.2466 14.8977L 9.81482 59.3247C 9.46113 60.0341 8.31165 60.7435 7.51585 60.7435L 5.04004 60.7435C 4.59793 60.7435 4.42109 60.4775 4.50951 60.0341L 30.4171 10.8186C 32.274 7.27149 37.2256 4.34516 41.2046 4.34516L 53.5836 4.34516C 57.5626 4.34516 62.5142 7.27149 64.3711 10.8186L 92.3124 63.8472C 92.666 64.5566 93.4618 65 94.2576 65C 94.6113 65 94.965 64.9113 95.2303 64.734C 96.9103 64.2019 97.3524 62.8718 96.7334 61.8076Z"/>
</defs>
</svg>
