<svg width="113" height="100" viewBox="0 0 113 100" version="1.1" xmlns="http://www.w3.org/2000/svg" xmlns:xlink="http://www.w3.org/1999/xlink">
<title>Group</title>
<desc>Created using Figma</desc>
<g id="Canvas" transform="translate(-18331 -2531)">
<g id="Group">
<g id="Group">
<g id="Vector">
<use xlink:href="#path0_fill" transform="translate(18337.2 2578.07)" fill="#1E1D25"/>
</g>
<g id="Vector">
<use xlink:href="#path1_fill" transform="translate(18333.9 2547.54)" fill="#1E1D25"/>
</g>
<g id="Vector">
<use xlink:href="#path2_fill" transform="translate(18380.2 2575.95)" fill="#1E1D25"/>
</g>
<g id="Vector">
<use xlink:href="#path3_fill" transform="translate(18384.3 2582.06)" fill="#1E1D25"/>
</g>
<g id="Vector">
<use xlink:href="#path4_fill" transform="translate(18380.2 2593.34)" fill="#1E1D25"/>
</g>
<g id="Vector">
<use xlink:href="#path5_fill" transform="translate(18363.5 2533.97)" fill="#1E1D25"/>
</g>
<g id="Vector">
<use xlink:href="#path6_fill" transform="translate(18370.6 2540.5)" fill="#1E1D25"/>
</g>
<g id="Vector">
<use xlink:href="#path7_fill" transform="translate(18346 2611.32)" fill="#FBC129"/>
</g>
</g>
<g id="Vector">
<use xlink:href="#path8_fill" transform="translate(18331 2531)" fill="#1E1D25"/>
</g>
</g>
</g>
<defs>
<path id="path0_fill" d="M 95.1357 49.9576L 5.39299 49.9576C 2.4437 49.9576 8.03618e-08 47.4979 8.03618e-08 44.5293L 8.03618e-08 1.27226C 8.03618e-08 0.593723 0.589858 0 1.26398 0C 1.93811 0 2.52796 0.593723 2.52796 1.27226L 2.52796 44.5293C 2.52796 46.1408 3.79195 47.4131 5.39299 47.4131L 95.1357 47.4131C 96.7368 47.4131 98.0007 46.1408 98.0007 44.5293L 98.0007 1.27226C 98.0007 0.593723 98.5906 0 99.2647 0C 99.9388 0 100.529 0.593723 100.529 1.27226L 100.529 44.5293C 100.613 47.4979 98.1693 49.9576 95.1357 49.9576Z"/>
<path id="path1_fill" d="M 59.66 36.9805C 58.9858 36.9805 58.396 36.3868 58.396 35.7082C 58.396 35.0297 58.9016 34.436 59.66 34.436C 74.4907 34.0967 89.4899 32.7396 104.152 30.1951C 104.405 30.1103 104.658 29.8558 104.658 29.6014L 104.658 5.42833C 104.658 3.81679 103.394 2.54453 101.793 2.54453L 5.39299 2.54453C 3.79195 2.54453 2.52796 3.81679 2.52796 5.42833L 2.52796 29.6862C 2.52796 29.9406 2.69649 30.1951 3.03356 30.2799C 17.6957 32.7396 32.695 34.1815 47.5257 34.5208C 48.1998 34.5208 48.7897 35.1145 48.7897 35.793C 48.7897 36.4716 48.1998 37.0653 47.5257 37.0653C 32.5265 36.726 17.443 35.369 2.61223 32.8244C 1.09545 32.57 -1.12264e-15 31.2977 -1.12264e-15 29.771L -1.12264e-15 5.42833C -1.12264e-15 2.45971 2.4437 0 5.39299 0L 101.708 0C 104.658 0 107.101 2.45971 107.101 5.42833L 107.101 29.6862C 107.101 31.2129 106.006 32.4852 104.489 32.7396C 89.7427 35.2841 74.6592 36.726 59.66 36.9805Z"/>
<path id="path2_fill" d="M 12.05 14.7583L 2.61223 14.7583C 1.17972 14.7583 1.28579e-06 13.5708 1.28579e-06 12.1289L 1.28579e-06 2.62935C 1.28579e-06 1.18745 1.17972 0 2.61223 0L 12.05 0C 13.4825 0 14.6622 1.18745 14.6622 2.62935L 14.6622 12.1289C 14.6622 13.5708 13.4825 14.7583 12.05 14.7583ZM 2.61223 2.54453C 2.52796 2.54453 2.52796 2.54453 2.61223 2.54453L 2.52797 12.1289C 2.52797 12.2137 2.52796 12.2137 2.61223 12.2137L 12.05 12.2137C 12.1342 12.2137 12.1342 12.2137 12.1342 12.1289L 12.1342 2.62935C 12.1342 2.54453 12.1342 2.54453 12.05 2.54453L 2.61223 2.54453Z"/>
<path id="path3_fill" d="M 5.14019 2.54453L 1.26398 2.54453C 0.589861 2.54453 -6.42895e-07 1.95081 -6.42895e-07 1.27227C -6.42895e-07 0.593724 0.589861 6.47107e-07 1.26398 6.47107e-07L 5.14019 6.47107e-07C 5.81432 6.47107e-07 6.40418 0.593724 6.40418 1.27227C 6.40418 1.95081 5.81432 2.54453 5.14019 2.54453Z"/>
<path id="path4_fill" d="M 13.3982 2.54453L 1.26398 2.54453C 0.58986 2.54453 1.28579e-06 1.95081 1.28579e-06 1.27226C 1.28579e-06 0.593723 0.58986 0 1.26398 0L 13.3982 0C 14.0723 0 14.6622 0.593723 14.6622 1.27226C 14.6622 1.95081 14.0723 2.54453 13.3982 2.54453Z"/>
<path id="path5_fill" d="M 46.7673 16.1154C 46.0932 16.1154 45.5033 15.5216 45.5033 14.8431L 45.5033 6.10687C 45.5033 4.15606 43.9023 2.54453 41.9642 2.54453L 6.06711 2.54453C 4.12901 2.54453 2.52796 4.15606 2.52796 6.10687L 2.52796 14.8431C 2.52796 15.5216 1.9381 16.1154 1.26398 16.1154C 0.589857 16.1154 -1.28579e-06 15.5216 -1.28579e-06 14.8431L -1.28579e-06 6.10687C -1.28579e-06 2.71416 2.78076 7.53332e-16 6.06711 7.53332e-16L 41.9642 7.53332e-16C 45.3348 7.53332e-16 48.0313 2.79898 48.0313 6.10687L 48.0313 14.8431C 48.0313 15.5216 47.5257 16.1154 46.7673 16.1154Z"/>
<path id="path6_fill" d="M 32.6107 9.58439C 31.9366 9.58439 31.3468 8.99067 31.3468 8.31213L 31.3468 2.45971L 2.52796 2.45971L 2.52796 8.31213C 2.52796 8.99067 1.93811 9.58439 1.26398 9.58439C 0.589858 9.58439 0 8.99067 0 8.31213L 0 1.78117C 0 0.763359 0.842655 -1.61777e-07 1.85384 -1.61777e-07L 32.0209 -1.61777e-07C 33.0321 -1.61777e-07 33.8747 0.848176 33.8747 1.78117L 33.8747 8.31213C 33.8747 8.99067 33.2849 9.58439 32.6107 9.58439Z"/>
<path id="path7_fill" d="M -6.42895e-07 -2.58843e-06C -6.42895e-07 3.30789 -6.42895e-07 6.61578 -6.42895e-07 10.0085C 27.7233 10.0085 55.3624 10.0085 83.0858 10.0085C 83.0858 6.70059 83.0858 3.3927 83.0858 -2.58843e-06C 55.4467 2.20526 27.6391 2.20526 -6.42895e-07 -2.58843e-06Z"/>
<path id="path8_fill" d="M 74.4907 4.24088C 77.1872 4.24088 79.2938 6.44614 79.2938 9.07549L 79.2938 17.8117L 104.658 17.8117C 106.933 17.8117 108.787 19.6777 108.787 21.9678L 108.787 46.2256C 108.787 47.1586 108.113 47.922 107.27 48.0916C 106.68 48.1764 106.09 48.2612 105.416 48.3461L 105.5 48.3461L 105.5 91.6031C 105.5 93.8931 103.647 95.7591 101.371 95.7591L 11.6286 95.7591C 9.35347 95.7591 7.49963 93.8931 7.49963 91.6031L 7.49963 48.3461L 7.58389 48.3461C 6.99403 48.2612 6.40418 48.1764 5.73005 48.0916C 4.8874 47.922 4.21327 47.0738 4.21327 46.2256C 4.21327 38.1679 4.21327 30.0254 4.21327 21.9678C 4.21327 19.5929 6.06711 17.8117 8.34228 17.8117L 33.7062 17.8117L 33.7062 9.07549C 33.7062 6.44614 35.8971 4.24088 38.5936 4.24088L 74.4907 4.24088ZM 74.4907 0L 38.5936 0C 33.5377 0 29.4929 4.07125 29.4929 9.07549L 29.4929 13.5708L 8.34228 13.5708C 3.70768 13.5708 0 17.3028 0 21.9678L 0 46.2256C 0 48.6005 1.34825 50.6361 3.28635 51.6539L 3.28635 91.6031C 3.28635 96.268 6.99403 100 11.6286 100L 101.371 100C 106.006 100 109.714 96.268 109.714 91.6031L 109.714 51.6539C 111.652 50.6361 113 48.6005 113 46.2256L 113 21.9678C 113 17.3028 109.292 13.5708 104.658 13.5708L 83.5071 13.5708L 83.5071 9.16031C 83.5071 4.07125 79.4623 0 74.4907 0Z"/>
</defs>
</svg>
