<svg width="107" height="100" viewBox="0 0 107 100" version="1.1" xmlns="http://www.w3.org/2000/svg" xmlns:xlink="http://www.w3.org/1999/xlink">
<title>Group</title>
<desc>Created using Figma</desc>
<g id="Canvas" transform="translate(-19187 -2531)">
<g id="Group">
<g id="Vector">
<use xlink:href="#path0_fill" transform="translate(19189.2 2577.59)" fill="#1E1D25"/>
</g>
<g id="Vector">
<use xlink:href="#path1_fill" transform="translate(19268.5 2589.35)" fill="#1E1D25"/>
</g>
<g id="Vector">
<use xlink:href="#path2_fill" transform="translate(19274.5 2573.46)" fill="#1E1D25"/>
</g>
<g id="Vector">
<use xlink:href="#path3_fill" transform="translate(19239.3 2571.84)" fill="#1E1D25"/>
</g>
<g id="Vector">
<use xlink:href="#path4_fill" transform="translate(19234.5 2581.18)" fill="#1E1D25"/>
</g>
<g id="Vector">
<use xlink:href="#path5_fill" transform="translate(19203 2541.86)" fill="#1E1D25"/>
</g>
<g id="Vector">
<use xlink:href="#path6_fill" transform="translate(19247.5 2581.72)" fill="#1E1D25"/>
</g>
<g id="Vector">
<use xlink:href="#path7_fill" transform="translate(19251.2 2562.51)" fill="#1E1D25"/>
</g>
<g id="Vector">
<use xlink:href="#path8_fill" transform="translate(19257.3 2547.97)" fill="#1E1D25"/>
</g>
<g id="Vector">
<use xlink:href="#path9_fill" transform="translate(19210.5 2534.14)" fill="#1E1D25"/>
</g>
<g id="Group">
<g id="Vector">
<use xlink:href="#path10_fill" transform="translate(19204.9 2560.44)" fill="#1E1D25"/>
</g>
<g id="Vector">
<use xlink:href="#path11_fill" transform="translate(19214.4 2560.44)" fill="#1E1D25"/>
</g>
<g id="Vector">
<use xlink:href="#path12_fill" transform="translate(19223.9 2560.44)" fill="#1E1D25"/>
</g>
<g id="Vector">
<use xlink:href="#path10_fill" transform="translate(19204.9 2571.22)" fill="#1E1D25"/>
</g>
<g id="Vector">
<use xlink:href="#path11_fill" transform="translate(19214.4 2571.22)" fill="#1E1D25"/>
</g>
<g id="Vector">
<use xlink:href="#path12_fill" transform="translate(19223.9 2571.22)" fill="#1E1D25"/>
</g>
<g id="Vector">
<use xlink:href="#path10_fill" transform="translate(19204.9 2581.99)" fill="#1E1D25"/>
</g>
<g id="Vector">
<use xlink:href="#path11_fill" transform="translate(19214.4 2581.99)" fill="#1E1D25"/>
</g>
<g id="Vector">
<use xlink:href="#path12_fill" transform="translate(19223.9 2581.99)" fill="#1E1D25"/>
</g>
<g id="Vector">
<use xlink:href="#path13_fill" transform="translate(19204.9 2592.85)" fill="#1E1D25"/>
</g>
<g id="Vector">
<use xlink:href="#path14_fill" transform="translate(19214.4 2592.85)" fill="#1E1D25"/>
</g>
<g id="Vector">
<use xlink:href="#path15_fill" transform="translate(19223.9 2592.85)" fill="#1E1D25"/>
</g>
<g id="Vector">
<use xlink:href="#path13_fill" transform="translate(19204.9 2603.62)" fill="#1E1D25"/>
</g>
<g id="Vector">
<use xlink:href="#path14_fill" transform="translate(19214.4 2603.62)" fill="#1E1D25"/>
</g>
<g id="Vector">
<use xlink:href="#path15_fill" transform="translate(19223.9 2603.62)" fill="#1E1D25"/>
</g>
<g id="Vector">
<use xlink:href="#path16_fill" transform="translate(19204.9 2614.48)" fill="#1E1D25"/>
</g>
<g id="Vector">
<use xlink:href="#path17_fill" transform="translate(19214.4 2614.48)" fill="#1E1D25"/>
</g>
<g id="Vector">
<use xlink:href="#path18_fill" transform="translate(19223.9 2614.48)" fill="#1E1D25"/>
</g>
</g>
<g id="Vector">
<use xlink:href="#path19_fill" transform="translate(19195.6 2551.02)" fill="#1E1D25"/>
</g>
<g id="Vector">
<use xlink:href="#path20_fill" transform="translate(19189.2 2624.99)" fill="#1E1D25"/>
</g>
<g id="Vector">
<use xlink:href="#path0_fill" transform="translate(19189.2 2577.59)" fill="#FBC129"/>
</g>
<g id="Vector">
<use xlink:href="#path1_fill" transform="translate(19268.5 2589.35)" fill="#FBC129"/>
</g>
<g id="Vector">
<use xlink:href="#path2_fill" transform="translate(19274.5 2573.46)" fill="#FBC129"/>
</g>
<g id="Vector">
<use xlink:href="#path3_fill" transform="translate(19239.3 2571.84)" fill="#FBC129"/>
</g>
<g id="Vector">
<use xlink:href="#path4_fill" transform="translate(19234.5 2581.18)" fill="#FBC129"/>
</g>
<g id="Vector">
<use xlink:href="#path5_fill" transform="translate(19203 2541.86)" fill="#1E1D25"/>
</g>
<g id="Vector">
<use xlink:href="#path6_fill" transform="translate(19247.5 2581.72)" fill="#1E1D25"/>
</g>
<g id="Vector">
<use xlink:href="#path7_fill" transform="translate(19251.2 2562.51)" fill="#1E1D25"/>
</g>
<g id="Vector">
<use xlink:href="#path8_fill" transform="translate(19257.3 2547.97)" fill="#1E1D25"/>
</g>
<g id="Vector">
<use xlink:href="#path9_fill" transform="translate(19210.5 2534.14)" fill="#1E1D25"/>
</g>
<g id="Group">
<g id="Vector">
<use xlink:href="#path10_fill" transform="translate(19204.9 2560.44)" fill="#1E1D25"/>
</g>
<g id="Vector">
<use xlink:href="#path11_fill" transform="translate(19214.4 2560.44)" fill="#1E1D25"/>
</g>
<g id="Vector">
<use xlink:href="#path12_fill" transform="translate(19223.9 2560.44)" fill="#1E1D25"/>
</g>
<g id="Vector">
<use xlink:href="#path10_fill" transform="translate(19204.9 2571.22)" fill="#1E1D25"/>
</g>
<g id="Vector">
<use xlink:href="#path11_fill" transform="translate(19214.4 2571.22)" fill="#1E1D25"/>
</g>
<g id="Vector">
<use xlink:href="#path12_fill" transform="translate(19223.9 2571.22)" fill="#1E1D25"/>
</g>
<g id="Vector">
<use xlink:href="#path10_fill" transform="translate(19204.9 2581.99)" fill="#1E1D25"/>
</g>
<g id="Vector">
<use xlink:href="#path11_fill" transform="translate(19214.4 2581.99)" fill="#1E1D25"/>
</g>
<g id="Vector">
<use xlink:href="#path12_fill" transform="translate(19223.9 2581.99)" fill="#1E1D25"/>
</g>
<g id="Vector">
<use xlink:href="#path13_fill" transform="translate(19204.9 2592.85)" fill="#1E1D25"/>
</g>
<g id="Vector">
<use xlink:href="#path14_fill" transform="translate(19214.4 2592.85)" fill="#1E1D25"/>
</g>
<g id="Vector">
<use xlink:href="#path15_fill" transform="translate(19223.9 2592.85)" fill="#1E1D25"/>
</g>
<g id="Vector">
<use xlink:href="#path13_fill" transform="translate(19204.9 2603.62)" fill="#1E1D25"/>
</g>
<g id="Vector">
<use xlink:href="#path14_fill" transform="translate(19214.4 2603.62)" fill="#1E1D25"/>
</g>
<g id="Vector">
<use xlink:href="#path15_fill" transform="translate(19223.9 2603.62)" fill="#1E1D25"/>
</g>
<g id="Vector">
<use xlink:href="#path16_fill" transform="translate(19204.9 2614.48)" fill="#1E1D25"/>
</g>
<g id="Vector">
<use xlink:href="#path17_fill" transform="translate(19214.4 2614.48)" fill="#1E1D25"/>
</g>
<g id="Vector">
<use xlink:href="#path18_fill" transform="translate(19223.9 2614.48)" fill="#1E1D25"/>
</g>
</g>
<g id="Vector">
<use xlink:href="#path19_fill" transform="translate(19195.6 2551.02)" fill="#1E1D25"/>
</g>
<g id="Vector">
<use xlink:href="#path21_fill" transform="translate(19187 2626.42)" fill="#1E1D25"/>
</g>
<g id="Group">
<g id="Vector">
<use xlink:href="#path22_fill" transform="translate(19244.3 2559.37)" fill="#1E1D25"/>
</g>
<g id="Vector">
<use xlink:href="#path23_fill" transform="translate(19192.3 2531)" fill="#1E1D25"/>
</g>
</g>
</g>
</g>
<defs>
<path id="path0_fill" d="M 7.72628 0L 0 0L 0 48.833L 7.72628 48.833L 7.72628 0Z"/>
<path id="path1_fill" d="M 23.2687 0L -2.74171e-06 0L -2.74171e-06 36.9838L 23.2687 36.9838L 23.2687 0Z"/>
<path id="path2_fill" d="M 11.2301 0L 0 0L 0 15.8887L 11.2301 15.8887L 11.2301 0Z"/>
<path id="path3_fill" d="M 4.85138 0L 0 0L 0 9.24596L 4.85138 9.24596L 4.85138 0Z"/>
<path id="path4_fill" d="M 14.2846 0L 0 0L 0 45.2424L 14.2846 45.2424L 14.2846 0Z"/>
<path id="path5_fill" d="M 25.5147 11.8492L -6.85428e-07 11.8492L -6.85428e-07 3.42432e-07L 25.5147 3.42432e-07L 25.5147 11.8492ZM 2.69521 9.15619L 22.8195 9.15619L 22.8195 2.693L 2.69521 2.693L 2.69521 9.15619Z"/>
<path id="path6_fill" d="M 22.3703 44.614L 19.6751 44.614L 19.6751 2.693L 2.69522 2.693L 2.69522 44.614L 2.74171e-06 44.614L 2.74171e-06 0L 22.3703 0L 22.3703 44.614Z"/>
<path id="path7_fill" d="M 14.8237 21.9031L 0 21.9031L 0 -1.36973e-06L 14.8237 -1.36973e-06L 14.8237 21.9031ZM 2.69521 19.2101L 12.1285 19.2101L 12.1285 2.693L 2.69521 2.693L 2.69521 19.2101Z"/>
<path id="path8_fill" d="M 2.69522 0L 2.74171e-06 0L 2.74171e-06 15.8887L 2.69522 15.8887L 2.69522 0Z"/>
<path id="path9_fill" d="M 10.4215 9.06643L 7.72628 9.06643L 7.72628 2.693L 2.69521 2.693L 2.69521 9.06643L 6.85428e-07 9.06643L 6.85428e-07 0L 10.4215 0L 10.4215 9.06643Z"/>
<path id="path10_fill" d="M 2.69521 0L 0 0L 0 3.85996L 2.69521 3.85996L 2.69521 0Z"/>
<path id="path11_fill" d="M 2.69521 0L 0 0L 0 3.85996L 2.69521 3.85996L 2.69521 0Z"/>
<path id="path12_fill" d="M 2.69521 0L 0 0L 0 3.85996L 2.69521 3.85996L 2.69521 0Z"/>
<path id="path13_fill" d="M 2.69521 0L 0 0L 0 3.85996L 2.69521 3.85996L 2.69521 0Z"/>
<path id="path14_fill" d="M 2.69521 0L 0 0L 0 3.85996L 2.69521 3.85996L 2.69521 0Z"/>
<path id="path15_fill" d="M 2.69521 0L 0 0L 0 3.85996L 2.69521 3.85996L 2.69521 0Z"/>
<path id="path16_fill" d="M 2.69521 0L 0 0L 0 3.85997L 2.69521 3.85997L 2.69521 0Z"/>
<path id="path17_fill" d="M 2.69521 0L 0 0L 0 3.85997L 2.69521 3.85997L 2.69521 0Z"/>
<path id="path18_fill" d="M 2.69521 0L 0 0L 0 3.85997L 2.69521 3.85997L 2.69521 0Z"/>
<path id="path19_fill" d="M 40.2485 75.3142L 37.5533 75.3142L 37.5533 2.693L 2.69521 2.693L 2.69521 75.3142L 3.42714e-07 75.3142L 3.42714e-07 -6.84865e-07L 40.2485 -6.84865e-07L 40.2485 75.3142Z"/>
<path id="path20_fill" d="M 102.508 -2.73946e-06L 0 -2.73946e-06L 0 2.693L 102.508 2.693L 102.508 -2.73946e-06Z"/>
<path id="path21_fill" d="M 104.754 4.48833L 2.24601 4.48833C 0.988245 4.48833 0 3.5009 0 2.24417C 0 0.987435 0.988245 2.73946e-06 2.24601 2.73946e-06L 104.754 2.73946e-06C 106.012 2.73946e-06 107 0.987435 107 2.24417C 107 3.5009 106.012 4.48833 104.754 4.48833Z"/>
<path id="path22_fill" d="M 18.597 4.48833C 19.5852 4.48833 20.3938 5.29623 20.3938 6.28366L 20.3938 23.6984L 22.2804 23.6984C 23.2687 23.6984 24.0772 24.5063 24.0772 25.4937L 24.0772 66.9659L 4.49203 66.9659L 4.49203 25.4937C 4.49203 24.5063 5.30059 23.6984 6.28884 23.6984L 8.26532 23.6984L 8.26532 6.28366C 8.26532 5.29623 9.07389 4.48833 10.0621 4.48833L 18.597 4.48833ZM 18.597 3.42432e-07L 10.0621 3.42432e-07C 6.55835 3.42432e-07 3.7733 2.87253 3.7733 6.28366L 3.7733 19.7487C 1.61713 20.7361 -6.85428e-07 22.9803 -6.85428e-07 25.4937L -6.85428e-07 66.9659L -6.85428e-07 71.4542L 4.49203 71.4542L 24.1671 71.4542L 28.6591 71.4542L 28.6591 66.9659L 28.6591 25.4937C 28.6591 22.8905 27.1318 20.7361 24.8858 19.7487L 24.8858 6.28366C 24.8858 2.87253 22.1008 3.42432e-07 18.597 3.42432e-07Z"/>
<path id="path23_fill" d="M 25.4249 4.48833C 26.4131 4.48833 27.3115 5.29623 27.3115 6.37343L 27.3115 12.2083L 33.0613 12.2083C 34.0495 12.2083 34.9479 13.0162 34.9479 14.0934L 34.9479 21.4542L 40.5181 21.4542C 41.5063 21.4542 42.4047 22.2621 42.4047 23.3393L 42.4047 95.5117L 4.67171 95.5117L 4.67171 23.1598C 4.67171 22.1723 5.48027 21.2747 6.55835 21.2747L 12.1285 21.2747L 12.1285 13.9138C 12.1285 12.9264 12.937 12.0287 14.0151 12.0287L 19.7649 12.0287L 19.7649 6.37343C 19.7649 5.386 20.5735 4.48833 21.6516 4.48833L 25.4249 4.48833ZM 25.4249 0L 21.4719 0C 17.9681 0 15.0932 2.87253 15.0932 6.37343L 15.0932 7.71993L 13.8354 7.71993C 10.3317 7.71993 7.45676 10.5925 7.45676 14.0934L 7.45676 16.9659L 6.37867 16.9659C 2.8749 16.9659 8.56786e-08 19.8384 8.56786e-08 23.3393L 8.56786e-08 95.5117L 8.56786e-08 100L 4.49202 100L 42.1352 100L 46.6272 100L 46.6272 95.5117L 46.6272 23.1598C 46.6272 19.6589 43.7523 16.7864 40.2485 16.7864L 39.1704 16.7864L 39.1704 13.9138C 39.1704 10.4129 36.2956 7.54039 32.7918 7.54039L 31.534 7.54039L 31.534 6.37343C 31.8035 2.87253 28.9286 0 25.4249 0Z"/>
</defs>
</svg>
