<svg width="60" height="100" viewBox="0 0 60 100" version="1.1" xmlns="http://www.w3.org/2000/svg" xmlns:xlink="http://www.w3.org/1999/xlink">
<title>Group</title>
<desc>Created using Figma</desc>
<g id="Canvas" transform="translate(-18783 -2531)">
<g id="Group">
<g id="Vector">
<use xlink:href="#path0_fill" transform="translate(18802.7 2581.08)" fill="#FBC129"/>
</g>
<g id="Vector">
<use xlink:href="#path1_fill" transform="translate(18788.1 2533.76)" fill="#1E1D23"/>
</g>
<g id="Vector">
<use xlink:href="#path2_fill" transform="translate(18801.5 2573.68)" fill="#1E1D23"/>
</g>
<g id="Vector">
<use xlink:href="#path3_fill" transform="translate(18822.9 2573.68)" fill="#1E1D23"/>
</g>
<g id="Vector">
<use xlink:href="#path4_fill" transform="translate(18785.8 2587.22)" fill="#1E1D23"/>
</g>
<g id="Vector">
<use xlink:href="#path5_fill" transform="translate(18811.8 2597.93)" fill="#1E1D23"/>
</g>
<g id="Vector">
<use xlink:href="#path6_fill" transform="translate(18793.1 2608.56)" fill="#1E1D23"/>
</g>
<g id="Vector">
<use xlink:href="#path7_fill" transform="translate(18807.6 2620.45)" fill="#1E1D23"/>
</g>
<g id="Vector">
<use xlink:href="#path8_fill" transform="translate(18826.4 2620.45)" fill="#1E1D23"/>
</g>
<g id="Vector">
<use xlink:href="#path9_fill" transform="translate(18788.9 2620.45)" fill="#1E1D23"/>
</g>
<g id="Group">
<g id="Vector">
<use xlink:href="#path10_fill" transform="translate(18801.5 2545.96)" fill="#1E1D23"/>
</g>
<g id="Vector">
<use xlink:href="#path11_fill" transform="translate(18822.9 2545.96)" fill="#1E1D23"/>
</g>
<g id="Vector">
<use xlink:href="#path12_fill" transform="translate(18811.8 2545.96)" fill="#1E1D23"/>
</g>
</g>
<g id="Group">
<g id="Vector">
<use xlink:href="#path13_fill" transform="translate(18785.3 2531)" fill="#1E1D23"/>
</g>
<g id="Vector">
<use xlink:href="#path14_fill" transform="translate(18783 2584.46)" fill="#1E1D23"/>
</g>
</g>
</g>
</g>
<defs>
<path id="path0_fill" d="M 21.3316 0L 0 0L 0 7.32284L 21.3316 7.32284L 21.3316 0Z"/>
<path id="path1_fill" d="M 40.1864 41.1024L 9.58722 41.1024C 6.71105 41.1024 4.31425 39.1339 3.83489 36.378L 7.61924e-08 15.4331C 7.61924e-08 6.92913 7.03063 0 15.6591 0L 34.1944 0C 42.8229 0 49.8535 6.92913 49.8535 15.4331L 49.8535 15.6693L 46.0985 36.4567C 45.4594 39.1339 43.0626 41.1024 40.1864 41.1024ZM 2.3968 15.2756L 6.1518 35.9055C 6.47137 37.5591 7.90945 38.7402 9.58722 38.7402L 40.2663 38.7402C 41.9441 38.7402 43.3822 37.5591 43.7017 35.9055L 47.4567 15.2756C 47.3768 8.11024 41.4647 2.3622 34.1944 2.3622L 15.6591 2.3622C 8.38881 2.3622 2.4767 8.18898 2.3968 15.2756Z"/>
<path id="path2_fill" d="M 2.3968 0L 0 0L 0 14.7244L 2.3968 14.7244L 2.3968 0Z"/>
<path id="path3_fill" d="M 2.39681 0L 0 0L 0 14.7244L 2.39681 14.7244L 2.39681 0Z"/>
<path id="path4_fill" d="M 48.8948 11.8898L 5.51265 11.8898C 2.4767 11.8898 0 9.44882 0 6.45669L 0 5.43307C 0 2.44095 2.4767 1.20148e-06 5.51265 1.20148e-06L 48.8948 1.20148e-06C 51.9308 1.20148e-06 54.4075 2.44095 54.4075 5.43307L 54.4075 6.45669C 54.4075 9.44882 51.9308 11.8898 48.8948 11.8898ZM 5.51265 2.36221C 3.75499 2.36221 2.3968 3.77953 2.3968 5.43307L 2.3968 6.45669C 2.3968 8.18898 3.83489 9.52756 5.51265 9.52756L 48.8948 9.52756C 50.6525 9.52756 52.0107 8.11024 52.0107 6.45669L 52.0107 5.43307C 52.0107 3.70079 50.5726 2.36221 48.8948 2.36221L 5.51265 2.36221Z"/>
<path id="path5_fill" d="M 2.3968 0L 0 0L 0 23.622L 2.3968 23.622L 2.3968 0Z"/>
<path id="path6_fill" d="M 39.7869 12.9921L 37.3901 12.9921L 37.3901 10.9449C 37.3901 6.22047 33.4754 2.3622 28.6818 2.3622L 11.1052 2.3622C 6.31158 2.3622 2.3968 6.22047 2.3968 10.9449L 2.3968 12.9921L -1.52385e-07 12.9921L -1.52385e-07 10.9449C -1.52385e-07 4.88189 4.9534 0 11.1052 0L 28.6818 0C 34.8336 0 39.7869 4.88189 39.7869 10.9449L 39.7869 12.9921Z"/>
<path id="path7_fill" d="M 5.35286 10.5512C 2.3968 10.5512 -6.09539e-07 8.18898 -6.09539e-07 5.27559C -6.09539e-07 2.36221 2.3968 -1.20148e-06 5.35286 -1.20148e-06C 8.30892 -1.20148e-06 10.7057 2.36221 10.7057 5.27559C 10.7856 8.18898 8.38881 10.5512 5.35286 10.5512ZM 5.35286 2.28346C 3.6751 2.28346 2.3968 3.62205 2.3968 5.19685C 2.3968 6.85039 3.75499 8.11024 5.35286 8.11024C 7.03063 8.11024 8.30892 6.77165 8.30892 5.19685C 8.38881 3.62205 7.03063 2.28346 5.35286 2.28346Z"/>
<path id="path8_fill" d="M 5.35286 10.5512C 2.3968 10.5512 -6.09539e-07 8.18898 -6.09539e-07 5.27559C -6.09539e-07 2.36221 2.3968 -1.20148e-06 5.35286 -1.20148e-06C 8.30892 -1.20148e-06 10.7057 2.36221 10.7057 5.27559C 10.7057 8.18898 8.30892 10.5512 5.35286 10.5512ZM 5.35286 2.28346C 3.6751 2.28346 2.3968 3.62205 2.3968 5.19685C 2.3968 6.85039 3.75499 8.11024 5.35286 8.11024C 7.03063 8.11024 8.30892 6.77165 8.30892 5.19685C 8.30892 3.62205 6.95073 2.28346 5.35286 2.28346Z"/>
<path id="path9_fill" d="M 5.35286 10.5512C 2.3968 10.5512 7.61924e-08 8.18898 7.61924e-08 5.27559C 7.61924e-08 2.36221 2.3968 -1.20148e-06 5.35286 -1.20148e-06C 8.30892 -1.20148e-06 10.7057 2.36221 10.7057 5.27559C 10.7856 8.18898 8.30892 10.5512 5.35286 10.5512ZM 5.35286 2.28346C 3.6751 2.28346 2.3968 3.62205 2.3968 5.19685C 2.3968 6.85039 3.75499 8.11024 5.35286 8.11024C 7.03063 8.11024 8.30892 6.77165 8.30892 5.19685C 8.38881 3.62205 7.03063 2.28346 5.35286 2.28346Z"/>
<path id="path10_fill" d="M 1.1984 11.1024C 0.559255 11.1024 6.09539e-07 10.5512 6.09539e-07 9.92126L 6.09539e-07 1.1811C 6.09539e-07 0.551181 0.559255 0 1.1984 0C 1.83755 0 2.3968 0.551181 2.3968 1.1811L 2.3968 9.92126C 2.3968 10.6299 1.83755 11.1024 1.1984 11.1024Z"/>
<path id="path11_fill" d="M 1.1984 11.1024C 0.559256 11.1024 1.21908e-06 10.5512 1.21908e-06 9.92126L 1.21908e-06 1.1811C 1.21908e-06 0.551181 0.559256 0 1.1984 0C 1.83755 0 2.39681 0.551181 2.39681 1.1811L 2.39681 9.92126C 2.39681 10.6299 1.83755 11.1024 1.1984 11.1024Z"/>
<path id="path12_fill" d="M 1.1984 11.1024C 0.559254 11.1024 0 10.5512 0 9.92126L 0 1.1811C 0 0.551181 0.559254 0 1.1984 0C 1.83755 0 2.3968 0.551181 2.3968 1.1811L 2.3968 9.92126C 2.3968 10.6299 1.91744 11.1024 1.1984 11.1024Z"/>
<path id="path13_fill" d="M 36.9108 3.93701C 44.9001 3.93701 51.3715 10.315 51.3715 18.189L 47.6165 38.9764C 47.217 41.1811 45.2996 42.7559 43.0626 42.7559L 12.3835 42.7559C 10.1465 42.7559 8.22903 41.1811 7.82956 38.9764L 3.99467 18.189C 3.99467 10.315 10.466 3.93701 18.4554 3.93701L 36.9108 3.93701ZM 36.9108 0L 18.4554 0C 8.22903 0 7.61924e-08 8.11024 7.61924e-08 18.189L 7.61924e-08 18.5039L 0.0798935 18.8976L 3.83489 39.685C 4.55393 43.7795 8.14913 46.6929 12.3835 46.6929L 43.0626 46.6929C 47.217 46.6929 50.8123 43.7795 51.6112 39.685L 55.2863 18.8976L 55.3662 18.5827L 55.3662 18.2677C 55.3662 8.11024 47.1371 0 36.9108 0Z"/>
<path id="path14_fill" d="M 51.6911 3.93701C 54.0879 3.93701 56.0053 5.82677 56.0053 8.18898L 56.0053 9.2126C 56.0053 11.5748 54.0879 13.4646 51.6911 13.4646L 8.30892 13.4646C 5.91212 13.4646 3.99467 11.5748 3.99467 9.2126L 3.99467 8.18898C 3.99467 5.82677 5.91212 3.93701 8.30892 3.93701L 51.6911 3.93701ZM 51.6911 1.20148e-06L 8.30892 1.20148e-06C 3.75499 1.20148e-06 0 3.70079 0 8.18898L 0 9.2126C 0 13.7008 3.75499 17.4016 8.30892 17.4016L 51.6911 17.4016C 56.245 17.4016 60 13.7008 60 9.2126L 60 8.18898C 60 3.70079 56.245 1.20148e-06 51.6911 1.20148e-06Z"/>
</defs>
</svg>
