<svg width="36" height="78" viewBox="0 0 36 78" version="1.1" xmlns="http://www.w3.org/2000/svg" xmlns:xlink="http://www.w3.org/1999/xlink">
<title>Facebook</title>
<desc>Created using Figma</desc>
<g id="Canvas" transform="matrix(2 0 0 2 -36928 -18570)">
<g id="Facebook">
<use xlink:href="#path0_fill" transform="translate(18464 9285)" fill="#454545"/>
</g>
</g>
<defs>
<path id="path0_fill" d="M 3.80151 7.55306C 3.80151 8.53587 3.80151 12.9226 3.80151 12.9226L -7.48728e-08 12.9226L -7.48728e-08 19.4885L 3.80151 19.4885L 3.80151 39L 11.6106 39L 11.6106 19.489L 16.8509 19.489C 16.8509 19.489 17.3417 16.3407 17.5795 12.8984C 16.8975 12.8984 11.6401 12.8984 11.6401 12.8984C 11.6401 12.8984 11.6401 9.07856 11.6401 8.40902C 11.6401 7.73803 12.4916 6.83546 13.3331 6.83546C 14.173 6.83546 15.9458 6.83546 17.5878 6.83546C 17.5878 5.94151 17.5878 2.8527 17.5878 2.34586e-08C 15.3958 2.34586e-08 12.9021 2.34586e-08 11.8029 2.34586e-08C 3.60847 -0.000453347 3.80151 6.57197 3.80151 7.55306Z"/>
</defs>
</svg>
