<svg width="80" height="76" viewBox="0 0 80 76" version="1.1" xmlns="http://www.w3.org/2000/svg" xmlns:xlink="http://www.w3.org/1999/xlink">
<title>linkedin</title>
<desc>Created using Figma</desc>
<g id="Canvas" transform="matrix(2 0 0 2 -37060 -18572)">
<g id="linkedin">
<use xlink:href="#path0_fill" transform="translate(18530.4 9286.95)" fill="#454545"/>
</g>
</g>
<defs>
<path id="path0_fill" d="M 0 4.30363C 0 3.05674 0.440867 2.02697 1.32104 1.21587C 2.20121 0.404774 3.34559 0 4.75417 0C 6.13775 0 7.25711 0.39857 8.11227 1.19726C 8.99244 2.02077 9.43331 3.09396 9.43331 4.41529C 9.43331 5.61256 9.00651 6.61131 8.15135 7.41C 7.27118 8.23351 6.1143 8.64448 4.6807 8.64448L 4.64318 8.64448C 3.2596 8.64448 2.14024 8.23351 1.28508 7.41C 0.429924 6.58649 0 5.55052 0 4.30363ZM 0.490895 37.05L 0.490895 12.0502L 8.86581 12.0502L 8.86581 37.05L 0.490895 37.05ZM 13.5059 37.05L 21.8808 37.05L 21.8808 23.0907C 21.8808 22.2176 21.9808 21.5445 22.1825 21.07C 22.5343 20.2216 23.0689 19.5036 23.7865 18.9174C 24.5025 18.3311 25.403 18.038 26.4833 18.038C 29.3005 18.038 30.7091 19.9223 30.7091 23.6894L 30.7091 37.05L 39.084 37.05L 39.084 22.717C 39.084 19.0244 38.2038 16.2235 36.4435 14.316C 34.6831 12.4069 32.3568 11.4531 29.4646 11.4531C 26.2207 11.4531 23.6927 12.838 21.8823 15.6078L 21.8823 15.6823L 21.8448 15.6823L 21.8823 15.6078L 21.8823 12.0502L 13.5059 12.0502C 13.5559 12.8489 13.5809 15.3302 13.5809 19.4974C 13.5809 23.6645 13.5559 29.5159 13.5059 37.05Z"/>
</defs>
</svg>
