<svg width="80" height="70" viewBox="0 0 80 70" version="1.1" xmlns="http://www.w3.org/2000/svg" xmlns:xlink="http://www.w3.org/1999/xlink">
<title>twitter</title>
<desc>Created using Figma</desc>
<g id="Canvas" transform="matrix(2 0 0 2 -37216 -18576)">
<g id="twitter">
<use xlink:href="#path0_fill" transform="translate(18608.6 9288.9)" fill="#454545"/>
</g>
</g>
<defs>
<path id="path0_fill" d="M 39.084 3.92217C 37.6455 4.58774 36.102 5.03913 34.4802 5.24065C 36.1361 4.20524 37.4037 2.56294 38.0044 0.612028C 36.4512 1.57088 34.7366 2.26713 32.9098 2.64456C 31.4469 1.015 29.366 1.26173e-07 27.058 1.26173e-07C 22.6302 1.26173e-07 19.04 3.74879 19.04 8.36974C 19.04 9.02511 19.1108 9.66521 19.2476 10.2773C 12.5851 9.92788 6.67717 6.5948 2.72311 1.53007C 2.03192 2.7644 1.63872 4.20264 1.63872 5.73791C 1.63872 8.64261 3.05526 11.2056 5.2045 12.705C 3.89052 12.6591 2.65471 12.2817 1.57281 11.6543L 1.57281 11.7589C 1.57281 15.8137 4.3375 19.1978 8.00335 19.968C 7.3317 20.1567 6.62347 20.2613 5.89077 20.2613C 5.37303 20.2613 4.87235 20.2077 4.38143 20.1057C 5.40228 23.4337 8.36238 25.8538 11.8695 25.9202C 9.12682 28.1644 5.66853 29.4981 1.91231 29.4981C 1.26512 29.4981 0.627644 29.4573 3.0337e-12 29.3833C 3.54866 31.7627 7.76163 33.15 12.2896 33.15C 27.0386 33.15 35.1007 20.3939 35.1007 9.33119L 35.0738 8.24737C 36.649 7.0742 38.0118 5.60021 39.084 3.92217Z"/>
</defs>
</svg>
