<svg width="117" height="100" viewBox="0 0 117 100" version="1.1" xmlns="http://www.w3.org/2000/svg" xmlns:xlink="http://www.w3.org/1999/xlink">
<title>Group</title>
<desc>Created using Figma</desc>
<g id="Canvas" transform="translate(-17902 -2531)">
<g id="Group">
<g id="Vector">
<use xlink:href="#path0_fill" transform="translate(17933.6 2562.03)" fill="#FBC129"/>
</g>
<g id="Vector">
<use xlink:href="#path1_fill" transform="translate(17904.9 2534.01)" fill="#1A1A22"/>
</g>
<g id="Vector">
<use xlink:href="#path2_fill" transform="translate(17914 2543.02)" fill="#1A1A22"/>
</g>
<g id="Vector">
<use xlink:href="#path3_fill" transform="translate(17923.7 2552.75)" fill="#1A1A22"/>
</g>
<g id="Vector">
<use xlink:href="#path4_fill" transform="translate(17917.5 2615.7)" fill="#1A1A22"/>
</g>
<g id="Vector">
<use xlink:href="#path5_fill" transform="translate(17972.6 2615.7)" fill="#1A1A22"/>
</g>
<g id="Vector">
<use xlink:href="#path6_fill" transform="translate(17949.1 2556.84)" fill="#1A1A22"/>
</g>
<g id="Vector">
<use xlink:href="#path7_fill" transform="translate(17987.4 2545.73)" fill="#1A1A22"/>
</g>
<g id="Vector">
<use xlink:href="#path8_fill" transform="translate(17996.2 2540.78)" fill="#1A1A22"/>
</g>
<g id="Vector">
<use xlink:href="#path9_fill" transform="translate(18005 2535.82)" fill="#1A1A22"/>
</g>
<g id="Vector">
<use xlink:href="#path10_fill" transform="translate(17948.4 2569.25)" fill="#1A1A22"/>
</g>
<g id="Vector">
<use xlink:href="#path11_fill" transform="translate(17902 2531)" fill="#1A1A22"/>
</g>
</g>
</g>
<defs>
<path id="path0_fill" d="M 16.7087 33.9523C 25.9367 33.9523 33.4174 26.3518 33.4174 16.9761C 33.4174 7.60047 25.9367 0 16.7087 0C 7.48075 0 0 7.60047 0 16.9761C 0 26.3518 7.48075 33.9523 16.7087 33.9523Z"/>
<path id="path1_fill" d="M 45.4406 90.893C 20.3334 90.893 -4.21552e-08 70.4686 -4.21552e-08 45.4465C -4.21552e-08 20.336 20.4218 8.43213e-08 45.4406 8.43213e-08C 57.5522 8.43213e-08 69.045 4.77454 77.6204 13.351C 78.1508 13.8815 78.1508 14.6773 77.6204 15.2078C 77.0899 15.7383 76.2943 15.7383 75.7639 15.2078C 67.6305 6.98497 56.9334 2.5641 45.4406 2.5641C 21.8363 2.5641 2.65218 21.7507 2.65218 45.3581C 2.65218 68.9655 21.8363 88.1521 45.4406 88.1521C 69.045 88.1521 88.2291 68.9655 88.2291 45.3581C 88.2291 42.2635 87.8755 39.0805 87.2566 36.0743C 87.0798 35.3669 87.5218 34.6596 88.2291 34.4828C 88.9363 34.3059 89.6436 34.748 89.8204 35.4553C 90.5276 38.6384 90.8813 41.9982 90.8813 45.3581C 90.9697 70.4686 70.5479 90.893 45.4406 90.893Z"/>
<path id="path2_fill" d="M 1.32609 37.6658C 0.618842 37.6658 3.37242e-07 37.0469 3.37242e-07 36.3395C 3.37242e-07 16.2688 16.2667 3.37285e-07 36.3348 3.37285e-07C 37.0421 3.37285e-07 37.6609 0.618922 37.6609 1.32626C 37.6609 2.0336 37.0421 2.65252 36.3348 2.65252C 17.7696 2.65252 2.56377 17.7719 2.56377 36.4279C 2.65218 37.1353 2.03334 37.6658 1.32609 37.6658Z"/>
<path id="path3_fill" d="M 26.6102 53.2272C 11.9348 53.2272 3.37242e-07 41.2909 3.37242e-07 26.6136C 3.37242e-07 11.9363 11.9348 3.37285e-07 26.6102 3.37285e-07C 33.5058 3.37285e-07 40.1363 2.65252 45.087 7.51547C 45.6174 8.04597 45.6174 8.84173 45.087 9.37224C 44.5566 9.90274 43.7609 9.90274 43.2305 9.37224C 38.7218 5.03979 32.7986 2.65252 26.6102 2.65252C 13.4377 2.65252 2.65218 13.4394 2.65218 26.6136C 2.65218 39.7878 13.4377 50.5747 26.6102 50.5747C 39.7827 50.5747 50.5682 39.7878 50.5682 26.6136C 50.5682 24.9337 50.3914 23.2538 50.0377 21.6622C 49.8609 20.9549 50.303 20.2476 51.0986 20.0707C 51.8059 19.8939 52.5131 20.336 52.6899 21.1317C 53.0435 22.9001 53.2204 24.7569 53.2204 26.6136C 53.2204 41.2909 41.2856 53.2272 26.6102 53.2272Z"/>
<path id="path4_fill" d="M 1.32951 15.2996C 1.06429 15.2996 0.887479 15.2112 0.622261 15.1228C 0.00341953 14.7691 -0.173392 13.8849 0.180231 13.266L 8.13676 0.622341C 8.49039 0.00341928 9.37444 -0.173415 9.99329 0.180254C 10.6121 0.533923 10.7889 1.4181 10.4353 2.03702L 2.47878 14.6807C 2.21357 15.1228 1.77154 15.2996 1.32951 15.2996Z"/>
<path id="path5_fill" d="M 9.28604 15.2996C 8.84401 15.2996 8.40198 15.1228 8.13676 14.6807L 0.180229 2.03702C -0.173394 1.4181 0.00341747 0.622341 0.622259 0.180254C 1.2411 -0.173415 2.03675 0.00341928 2.47878 0.622341L 10.4353 13.266C 10.7889 13.8849 10.6121 14.6807 9.99328 15.1228C 9.81647 15.2996 9.55126 15.2996 9.28604 15.2996Z"/>
<path id="path6_fill" d="M 1.30767 23.8543C 0.865636 23.8543 0.423607 23.589 0.15839 23.1469C -0.195234 22.528 0.0699824 21.7322 0.688824 21.3786L 39.3222 0.158408C 39.941 -0.195261 40.7367 0.0699914 41.0903 0.688913C 41.4439 1.30783 41.1787 2.10359 40.5599 2.45726L 1.92651 23.6774C 1.7497 23.8543 1.57288 23.8543 1.30767 23.8543Z"/>
<path id="path7_fill" d="M 12.642 16.6614C 12.5536 16.6614 12.3768 16.6615 12.2884 16.573L -1.34897e-06 13.3016L 3.27102 1.01158C 3.44783 0.304244 4.15508 -0.137841 4.86232 0.0389937C 5.56957 0.215828 6.0116 0.923166 5.83479 1.6305L 3.27102 11.3564L 12.9957 13.9205C 13.7029 14.0973 14.1449 14.8047 13.9681 15.512C 13.7913 16.3078 13.2609 16.6614 12.642 16.6614Z"/>
<path id="path8_fill" d="M 12.642 16.6614C 12.5536 16.6614 12.3768 16.6614 12.2884 16.573L 1.25632e-14 13.3016L 3.27102 1.01158C 3.44783 0.304245 4.15508 -0.137841 4.86232 0.0389934C 5.56957 0.215828 6.0116 0.923166 5.83479 1.6305L 3.27102 11.3564L 12.9957 13.9205C 13.7029 14.0973 14.1449 14.8047 13.9681 15.512C 13.7913 16.3078 13.2609 16.6614 12.642 16.6614Z"/>
<path id="path9_fill" d="M 12.642 16.6614C 12.5536 16.6614 12.3768 16.6615 12.2884 16.573L 0 13.3016L 3.27102 1.01158C 3.44783 0.304245 4.15508 -0.137842 4.86232 0.0389931C 5.56957 0.215828 6.0116 0.923166 5.83479 1.6305L 3.27102 11.3564L 12.9957 13.9205C 13.7029 14.0973 14.1449 14.8047 13.9681 15.512C 13.7029 16.2194 13.1725 16.6614 12.642 16.6614Z"/>
<path id="path10_fill" d="M 10.6971 14.1858C 10.6087 14.1858 10.4319 14.1858 10.3435 14.0973L 1.25632e-14 11.0912L 2.29855 1.01158C 2.47536 0.304246 3.18261 -0.137842 3.88986 0.0389924C 4.59711 0.215827 5.03914 0.923165 4.86233 1.6305L 3.18261 9.2344L 11.0507 11.5332C 11.758 11.7101 12.2 12.5058 11.9348 13.2132C 11.8464 13.8321 11.316 14.1858 10.6971 14.1858Z"/>
<path id="path11_fill" d="M 48.358 96.7286C 21.6594 96.7286 0 75.0663 0 48.3643C 0 21.6622 21.6594 0 48.358 0C 61.2653 0 73.4653 5.03979 82.5711 14.1468C 83.8088 15.3846 83.8088 17.3298 82.5711 18.4792C 81.3334 19.7171 79.3885 19.7171 78.2392 18.4792C 70.2827 10.5217 59.674 6.1008 48.4464 6.1008C 25.1073 6.18921 6.18841 25.1105 6.18841 48.3643C 6.18841 71.618 25.1073 90.5393 48.358 90.5393C 71.6088 90.5393 90.5276 71.618 90.5276 48.3643C 90.5276 45.2697 90.174 42.1751 89.5552 39.1689C 89.2016 37.4889 90.2624 35.809 91.9421 35.4553C 93.6219 35.1017 95.3016 36.1627 95.6552 37.8426C 96.4508 41.2909 96.8045 44.8276 96.8045 48.3643C 96.7161 75.0663 75.0566 96.7286 48.358 96.7286Z"/>
</defs>
</svg>
