<svg width="124" height="83" viewBox="0 0 124 83" version="1.1" xmlns="http://www.w3.org/2000/svg" xmlns:xlink="http://www.w3.org/1999/xlink">
<title>Group</title>
<desc>Created using Figma</desc>
<g id="Canvas" transform="translate(-18538 -9026)">
<g id="Group">
<g id="Vector">
<use xlink:href="#path0_fill" transform="translate(18538.6 9026)" fill="#FFC126"/>
</g>
<g id="Vector">
<use xlink:href="#path1_fill" transform="translate(18613.3 9092.63)" fill="#FFC126"/>
</g>
</g>
</g>
<defs>
<path id="path0_fill" d="M 122.211 78.3412L 86.7988 11.1274C 83.5592 4.8331 75.4044 0 68.3667 0L 52.7272 0C 45.6895 0 37.6463 4.9455 34.295 11.1274L 0.670261 75.0817C -0.22342 76.7676 -0.22342 78.566 0.670261 80.0272C 1.56394 81.4883 3.12789 82.2751 5.02696 82.2751L 10.0539 82.2751C 13.0701 82.2751 16.4214 80.252 17.7619 77.5544L 47.3651 21.2432C 48.8174 18.5456 52.6155 16.1853 55.6317 16.1853L 65.4622 16.1853C 68.4784 16.1853 72.2765 18.5456 73.7287 21.2432L 102.438 75.8684C 102.662 76.318 102.327 76.7676 101.768 76.7676L 98.6401 76.7676C 97.6347 76.7676 96.1825 75.8684 95.7357 74.9693L 70.2657 26.4135C 68.8135 23.7159 65.5739 21.6928 62.5577 21.6928L 58.6479 21.6928C 55.6317 21.6928 52.2804 23.7159 50.9399 26.4135L 25.3582 74.9693C 24.4645 76.6552 24.4645 78.4536 25.2465 79.9148C 26.1402 81.3759 27.7041 82.1627 29.6032 82.1627L 34.6302 82.1627C 37.6463 82.1627 40.9977 80.1396 42.3382 77.442L 59.8767 44.0599C 60.1001 43.6103 60.5469 43.6103 60.8821 44.0599L 68.1432 57.9972C 68.4784 58.5592 68.1432 59.0088 67.5847 59.0088L 58.8713 59.0088C 57.4191 59.0088 56.1902 60.2452 56.1902 61.7063C 56.1902 63.1675 57.4191 64.4039 58.8713 64.4039L 69.4838 64.4039C 71.3828 64.4039 73.0585 63.6171 73.8405 62.1559C 74.7341 60.6948 74.7341 58.8964 73.7287 57.2104L 64.3451 39.2268C 63.4514 37.4284 61.8875 36.4169 60.2118 36.4169C 58.5362 36.4169 57.0839 37.4284 56.0785 39.2268L 37.3112 74.9693C 36.8644 75.8684 35.4121 76.7676 34.4067 76.7676L 31.2789 76.7676C 30.7203 76.7676 30.3852 76.318 30.7203 75.8684L 55.2966 29.111C 55.7434 28.2118 57.1956 27.3126 58.201 27.3126L 62.1109 27.3126C 63.1163 27.3126 64.5685 28.2118 65.0154 29.111L 90.4853 77.6668C 91.9375 80.3643 95.1771 82.3875 98.1933 82.3875L 103.22 82.3875C 105.119 82.3875 106.795 81.6007 107.577 80.1396C 108.471 78.6784 108.471 76.88 107.577 75.1941L 77.9737 18.8828C 75.6278 14.3869 69.9306 10.9026 64.9036 10.9026L 55.0731 10.9026C 50.0462 10.9026 44.349 14.3869 42.003 18.8828L 12.3998 75.1941C 11.953 76.0932 10.5008 76.9924 9.49537 76.9924L 6.36748 76.9924C 5.80893 76.9924 5.58551 76.6552 5.69722 76.0932L 38.4283 13.7125C 40.7742 9.21661 47.03 5.50749 52.057 5.50749L 67.6964 5.50749C 72.7234 5.50749 78.9791 9.21661 81.325 13.7125L 116.625 80.9263C 117.072 81.8255 118.078 82.3875 119.083 82.3875C 119.53 82.3875 119.977 82.2751 120.312 82.0503C 122.434 81.3759 122.993 79.69 122.211 78.3412Z"/>
<path id="path1_fill" d="M 5.11148 1.48359C 4.44122 0.134816 2.76556 -0.427172 1.42504 0.359612C 0.084515 1.034 -0.362326 2.71997 0.307935 4.06874L 5.67003 14.4093C 6.11687 15.3085 7.12226 15.8705 8.12765 15.8705C 8.57449 15.8705 9.02134 15.7581 9.35647 15.5333C 10.697 14.8589 11.1438 13.173 10.4736 11.8242L 5.11148 1.48359Z"/>
</defs>
</svg>
