<svg width="68" height="78" viewBox="0 0 68 78" version="1.1" xmlns="http://www.w3.org/2000/svg" xmlns:xlink="http://www.w3.org/1999/xlink">
<title>drupal</title>
<desc>Created using Figma</desc>
<g id="Canvas" transform="matrix(2 0 0 2 -37372 -18570)">
<g id="drupal">
<use xlink:href="#path0_fill" transform="translate(18686.8 9285)" fill="#454545"/>
</g>
</g>
<defs>
<path id="path0_fill" d="M 24.8792 7.25097C 22.9434 6.01092 21.109 5.51869 19.2839 4.27864C 18.1501 3.49296 16.5738 1.60922 15.2557 0C 14.9976 2.59369 14.2325 3.64442 13.3568 4.39223C 11.4947 5.89733 10.3241 6.34223 8.71093 7.25097C 7.3559 7.96092 0 12.4762 0 22.1694C 0 31.8626 7.93663 39 16.7582 39C 25.5797 39 33.2214 32.4211 33.2214 22.4723C 33.2214 12.5235 26.0498 7.99879 24.8792 7.25097ZM 25.0912 35.4597C 24.9068 35.649 23.2292 36.8512 21.2473 37.0405C 19.2654 37.2299 16.6015 37.3434 14.9883 35.8383C 14.7302 35.5733 14.804 35.2041 14.9883 35.0527C 15.1727 34.9012 15.3202 34.7876 15.5414 34.7876C 15.7626 34.7876 15.7258 34.7876 15.8364 34.8633C 16.5646 35.4692 17.6615 35.9519 20.0029 35.9519C 22.3442 35.9519 23.9942 35.2799 24.7225 34.7119C 25.0543 34.4468 25.2018 34.674 25.2387 34.8255C 25.2755 34.9769 25.3493 35.2041 25.0912 35.4597ZM 18.6847 32.0425C 19.0903 31.6638 19.7448 31.0675 20.3716 30.8024C 20.9892 30.5374 21.321 30.5752 21.911 30.5752C 22.5009 30.5752 23.1185 30.6131 23.561 30.916C 24.0035 31.2189 24.2523 31.891 24.3998 32.2697C 24.5473 32.6483 24.3998 32.8755 24.1049 33.0175C 23.8468 33.1689 23.8099 33.0932 23.5518 32.601C 23.2937 32.1087 23.0724 31.626 21.7912 31.626C 20.5099 31.626 20.1043 32.0803 19.4867 32.601C 18.8691 33.1311 18.6478 33.3109 18.4266 33.0175C 18.2146 32.724 18.2883 32.4211 18.6847 32.0425ZM 28.382 32.3454C 27.0638 32.2318 24.4275 28.0289 22.7498 27.9532C 20.6297 27.8774 16.0207 32.4968 12.3981 32.4968C 10.2042 32.4968 9.54054 32.1561 8.81233 31.6733C 7.7154 30.8876 7.16232 29.6854 7.19919 28.0289C 7.23607 25.0944 9.90926 22.3587 13.2738 22.3209C 17.5509 22.283 20.5191 26.6752 22.6761 26.6374C 24.5012 26.5995 28.0225 22.9172 29.737 22.9172C 31.5622 22.9172 32.0784 24.8672 32.0784 26.0316C 32.0784 27.1959 31.7096 29.2973 30.8339 30.6131C 29.9582 31.9289 29.4052 32.4211 28.382 32.3454Z"/>
</defs>
</svg>
